<svg width="1200" height="750" viewBox="0 0 1200 750" fill="none" xmlns="http://www.w3.org/2000/svg">
  <defs>
    <linearGradient id="bg" x1="0" y1="0" x2="1200" y2="750" gradientUnits="userSpaceOnUse">
      <stop stop-color="#F6FAF0"/>
      <stop offset="1" stop-color="#B8C5A0"/>
    </linearGradient>
  </defs>
  <rect width="1200" height="750" rx="44" fill="url(#bg)"/>
  <rect x="72" y="56" width="1056" height="638" rx="34" fill="#FFFFFF" fill-opacity="0.54" stroke="#2B3321" stroke-opacity="0.08"/>
  <rect x="104" y="90" width="992" height="570" rx="28" fill="#FBFCF6" fill-opacity="0.76" stroke="#2B3321" stroke-opacity="0.06"/>
  <rect x="132" y="122" width="300" height="506" rx="24" fill="#E5ECD8"/>
  <rect x="460" y="122" width="608" height="72" rx="22" fill="#2B3321" fill-opacity="0.08"/>
  <rect x="460" y="220" width="282" height="184" rx="24" fill="#FFFFFF" stroke="#2B3321" stroke-opacity="0.06"/>
  <rect x="766" y="220" width="302" height="184" rx="24" fill="#FFFFFF" stroke="#2B3321" stroke-opacity="0.06"/>
  <rect x="460" y="432" width="608" height="196" rx="26" fill="#FFFFFF" stroke="#2B3321" stroke-opacity="0.06"/>
  <rect x="158" y="160" width="198" height="20" rx="10" fill="#2B3321" fill-opacity="0.14"/>
  <rect x="158" y="196" width="134" height="18" rx="9" fill="#2B3321" fill-opacity="0.1"/>
  <rect x="158" y="232" width="170" height="18" rx="9" fill="#2B3321" fill-opacity="0.08"/>
  <rect x="158" y="282" width="214" height="128" rx="20" fill="#FFFFFF" fill-opacity="0.7"/>
  <rect x="158" y="438" width="214" height="128" rx="20" fill="#FFFFFF" fill-opacity="0.7"/>
  <rect x="488" y="248" width="220" height="16" rx="8" fill="#6F8F63" fill-opacity="0.3"/>
  <rect x="488" y="280" width="180" height="16" rx="8" fill="#6F8F63" fill-opacity="0.18"/>
  <rect x="488" y="312" width="154" height="16" rx="8" fill="#6F8F63" fill-opacity="0.12"/>
  <rect x="794" y="250" width="206" height="16" rx="8" fill="#2B3321" fill-opacity="0.18"/>
  <rect x="794" y="282" width="236" height="16" rx="8" fill="#2B3321" fill-opacity="0.12"/>
  <rect x="794" y="314" width="170" height="16" rx="8" fill="#2B3321" fill-opacity="0.08"/>
  <rect x="488" y="466" width="540" height="20" rx="10" fill="#2B3321" fill-opacity="0.16"/>
  <rect x="488" y="506" width="478" height="20" rx="10" fill="#2B3321" fill-opacity="0.1"/>
  <rect x="488" y="546" width="510" height="20" rx="10" fill="#2B3321" fill-opacity="0.08"/>
  <circle cx="356" cy="502" r="68" fill="#6F8F63" fill-opacity="0.2"/>
  <path d="M326 522V482H370V522H326Z" fill="#6F8F63" fill-opacity="0.62"/>
  <text x="162" y="332" fill="#2B3321" fill-opacity="0.75" font-size="20" font-family="Arial, Helvetica, sans-serif" font-weight="700" letter-spacing="2">MDX</text>
  <text x="488" y="172" fill="#2B3321" fill-opacity="0.55" font-size="16" font-family="Arial, Helvetica, sans-serif" letter-spacing="2">PUBLISHING STACK</text>
</svg>
