<svg width="1200" height="760" viewBox="0 0 1200 760" fill="none" xmlns="http://www.w3.org/2000/svg">
  <defs>
    <linearGradient id="bg" x1="0" y1="0" x2="1200" y2="760" gradientUnits="userSpaceOnUse">
      <stop stop-color="#F9F7F2"/>
      <stop offset="1" stop-color="#EDE8DF"/>
    </linearGradient>
  </defs>
  <rect width="1200" height="760" rx="44" fill="url(#bg)"/>
  <rect x="122" y="82" width="956" height="596" rx="36" fill="#FFFFFF" fill-opacity="0.84" stroke="#1C1C1C" stroke-opacity="0.08"/>
  <rect x="202" y="146" width="796" height="468" rx="32" fill="#FCFCFC" stroke="#1C1C1C" stroke-opacity="0.05"/>
  <rect x="248" y="202" width="186" height="116" rx="24" fill="#FFFFFF"/>
  <text x="286" y="266" fill="#1D1D1D" font-size="28" font-family="Arial, Helvetica, sans-serif" font-weight="800">Discover</text>
  <text x="286" y="298" fill="#1D1D1D" fill-opacity="0.72" font-size="16" font-family="Arial, Helvetica, sans-serif">Student Loans</text>
  <rect x="488" y="204" width="412" height="18" rx="9" fill="#1D1D1D" fill-opacity="0.14"/>
  <rect x="488" y="242" width="332" height="18" rx="9" fill="#1D1D1D" fill-opacity="0.1"/>
  <rect x="488" y="280" width="268" height="18" rx="9" fill="#1D1D1D" fill-opacity="0.08"/>
  <rect x="248" y="356" width="712" height="136" rx="26" fill="#F2F0EA"/>
  <rect x="284" y="392" width="308" height="18" rx="9" fill="#1D1D1D" fill-opacity="0.14"/>
  <rect x="284" y="428" width="218" height="18" rx="9" fill="#1D1D1D" fill-opacity="0.1"/>
  <rect x="644" y="392" width="220" height="60" rx="18" fill="#FFFFFF"/>
  <text x="286" y="536" fill="#1D1D1D" fill-opacity="0.82" font-size="18" font-family="Arial, Helvetica, sans-serif" letter-spacing="1.2">Interactive application assistant tool</text>
</svg>
