<svg width="1200" height="750" viewBox="0 0 1200 750" fill="none" xmlns="http://www.w3.org/2000/svg">
  <defs>
    <linearGradient id="bg" x1="0" y1="0" x2="1200" y2="750" gradientUnits="userSpaceOnUse">
      <stop stop-color="#EAF7FF"/>
      <stop offset="1" stop-color="#46A6D8"/>
    </linearGradient>
    <linearGradient id="chart" x1="360" y1="200" x2="960" y2="560" gradientUnits="userSpaceOnUse">
      <stop stop-color="#FFFFFF" stop-opacity="0.85"/>
      <stop offset="1" stop-color="#BCE8FF" stop-opacity="0.78"/>
    </linearGradient>
  </defs>
  <rect width="1200" height="750" rx="44" fill="url(#bg)"/>
  <rect x="72" y="56" width="1056" height="638" rx="34" fill="#FFFFFF" fill-opacity="0.34" stroke="#1D425A" stroke-opacity="0.08"/>
  <rect x="104" y="88" width="992" height="578" rx="28" fill="#F8FDFF" fill-opacity="0.68" stroke="#1D425A" stroke-opacity="0.06"/>
  <rect x="132" y="124" width="240" height="502" rx="24" fill="#1D425A" fill-opacity="0.08"/>
  <rect x="392" y="124" width="676" height="200" rx="28" fill="url(#chart)" stroke="#1D425A" stroke-opacity="0.06"/>
  <rect x="392" y="348" width="328" height="278" rx="28" fill="#FFFFFF" fill-opacity="0.82" stroke="#1D425A" stroke-opacity="0.06"/>
  <rect x="748" y="348" width="320" height="278" rx="28" fill="#FFFFFF" fill-opacity="0.82" stroke="#1D425A" stroke-opacity="0.06"/>
  <rect x="158" y="160" width="180" height="18" rx="9" fill="#1D425A" fill-opacity="0.18"/>
  <rect x="158" y="196" width="128" height="18" rx="9" fill="#1D425A" fill-opacity="0.12"/>
  <rect x="158" y="236" width="168" height="18" rx="9" fill="#1D425A" fill-opacity="0.1"/>
  <rect x="158" y="286" width="188" height="118" rx="18" fill="#FFFFFF" fill-opacity="0.72"/>
  <rect x="158" y="428" width="188" height="118" rx="18" fill="#FFFFFF" fill-opacity="0.72"/>
  <path d="M434 274L508 246L570 292L646 222L728 254L826 186L970 240" stroke="#46A6D8" stroke-width="14" stroke-linecap="round" stroke-linejoin="round"/>
  <path d="M434 308L508 278L570 316L646 268L728 300L826 250L970 286" stroke="#1D425A" stroke-opacity="0.22" stroke-width="10" stroke-linecap="round" stroke-linejoin="round"/>
  <rect x="428" y="390" width="248" height="20" rx="10" fill="#46A6D8" fill-opacity="0.22"/>
  <rect x="428" y="430" width="206" height="20" rx="10" fill="#46A6D8" fill-opacity="0.14"/>
  <rect x="428" y="470" width="188" height="20" rx="10" fill="#46A6D8" fill-opacity="0.1"/>
  <rect x="784" y="390" width="220" height="20" rx="10" fill="#1D425A" fill-opacity="0.18"/>
  <rect x="784" y="430" width="184" height="20" rx="10" fill="#1D425A" fill-opacity="0.12"/>
  <rect x="784" y="470" width="246" height="20" rx="10" fill="#1D425A" fill-opacity="0.08"/>
  <circle cx="972" cy="540" r="60" fill="#46A6D8" fill-opacity="0.22"/>
  <text x="158" y="322" fill="#1D425A" fill-opacity="0.75" font-size="20" font-family="Arial, Helvetica, sans-serif" font-weight="700" letter-spacing="2">STOCK CHECKER</text>
  <text x="428" y="176" fill="#1D425A" fill-opacity="0.55" font-size="16" font-family="Arial, Helvetica, sans-serif" letter-spacing="2">STREAMING DATA</text>
</svg>
