<svg width="1200" height="760" viewBox="0 0 1200 760" fill="none" xmlns="http://www.w3.org/2000/svg">
  <defs>
    <linearGradient id="bg" x1="0" y1="0" x2="1200" y2="760" gradientUnits="userSpaceOnUse">
      <stop stop-color="#62B7FF"/>
      <stop offset="1" stop-color="#2B85FF"/>
    </linearGradient>
    <linearGradient id="cone" x1="430" y1="264" x2="620" y2="512" gradientUnits="userSpaceOnUse">
      <stop stop-color="#FFE34E"/>
      <stop offset="1" stop-color="#52D9A5"/>
    </linearGradient>
  </defs>
  <rect width="1200" height="760" rx="44" fill="url(#bg)"/>
  <rect x="120" y="82" width="960" height="596" rx="36" fill="#FFFFFF" fill-opacity="0.14" stroke="#FFFFFF" stroke-opacity="0.08"/>
  <rect x="212" y="154" width="776" height="452" rx="32" fill="#F9FDFF" fill-opacity="0.8"/>
  <circle cx="448" cy="388" r="128" fill="#52D9A5" fill-opacity="0.32"/>
  <path d="M380 472L516 268L684 344L548 548L380 472Z" fill="url(#cone)"/>
  <path d="M514 266L548 236L606 280L572 310L514 266Z" fill="#FFE34E"/>
  <path d="M382 472L346 514L414 558L450 518L382 472Z" fill="#FFE9B3"/>
  <rect x="680" y="274" width="182" height="18" rx="9" fill="#1A3764" fill-opacity="0.16"/>
  <rect x="680" y="312" width="226" height="18" rx="9" fill="#1A3764" fill-opacity="0.12"/>
  <rect x="680" y="350" width="194" height="18" rx="9" fill="#1A3764" fill-opacity="0.08"/>
  <rect x="680" y="424" width="198" height="18" rx="9" fill="#1A3764" fill-opacity="0.14"/>
  <rect x="680" y="462" width="158" height="18" rx="9" fill="#1A3764" fill-opacity="0.1"/>
  <text x="332" y="560" fill="#1A3764" font-size="58" font-family="Arial, Helvetica, sans-serif" font-weight="800" letter-spacing="1.2">Zenly</text>
  <text x="332" y="602" fill="#1A3764" fill-opacity="0.68" font-size="18" font-family="Arial, Helvetica, sans-serif" letter-spacing="1.3">Live map of close friends and family</text>
</svg>
